PathFileType	4	(X/Y/Z)	Patient4_TMGait_0pt7_02_right_32.trc.trc
DataRate	CameraRate	NumFrames	NumMarkers	Units	OrigDataRate	OrigDataStartFrame	OrigNumFrames
87.500000000000	87.500000000000	4	33	mm	87.500000000000	53	       141
Frame#	Time	Sacral			L.Shoulder			Chest			R.Shoulder			Neck			R.ASIS			L.ASIS			R.Thigh.Superior			R.Thigh.Lateral			R.Thigh.Inferior			R.Patella			L.Thigh.Superior			L.Thigh.Lateral			L.Thigh.Inferior			L.Patella			L.Shank.Superior			L.Shank.Lateral			L.Shank.Inferior			R.Shank.Superior			R.Shank.Lateral			R.Shank.Inferior			R.Heel			R.Midfoot.Superior			R.Midfoot.Lateral			R.Toe			L.Heel			L.Midfoot.Lateral			L.Midfoot.Superior			L.Toe			L.Elbow			L.Wrist			R.Elbow			R.Wrist			
		X1	Y1	Z1	X2	Y2	Z2	X3	Y3	Z3	X4	Y4	Z4	X5	Y5	Z5	X6	Y6	Z6	X7	Y7	Z7	X8	Y8	Z8	X9	Y9	Z9	X10	Y10	Z10	X11	Y11	Z11	X12	Y12	Z12	X13	Y13	Z13	X14	Y14	Z14	X15	Y15	Z15	X16	Y16	Z16	X17	Y17	Z17	X18	Y18	Z18	X19	Y19	Z19	X20	Y20	Z20	X21	Y21	Z21	X22	Y22	Z22	X23	Y23	Z23	X24	Y24	Z24	X25	Y25	Z25	X26	Y26	Z26	X27	Y27	Z27	X28	Y28	Z28	X29	Y29	Z29	X30	Y30	Z30	X31	Y31	Z31	X32	Y32	Z32	X33	Y33	Z33	

53	36.634285714286	868.803105604383	1020.537657479960	529.939195529649	1054.309728983804	1432.697029087930	323.983740548877	1173.505967416060	1355.551963779174	471.351584538920	1120.093266375369	1440.748498332003	651.639486213608	1082.692770335380	1494.069595503466	475.503748759634	1101.244379617253	945.361408873251	628.854003930712	1064.116815570576	959.144443048411	357.244499072629	1124.063455477760	740.373903585649	600.548008101778	1034.703745880370	636.985500556805	660.349994264946	1104.666286922051	580.071155685507	578.272479827925	1097.493327409357	492.789732679316	582.485607814730	1153.734436780177	795.064225255894	379.367562586361	1115.415627625903	669.445554891048	295.723240308738	1229.030431844946	613.214799763821	348.013412704093	1247.979306231144	522.736001905230	336.250299236634	1181.656241573289	452.575510490324	334.024167836381	1037.297862629978	410.151085444299	295.032323961279	1028.402020553662	281.086353459343	349.956336420424	1065.649547443773	406.689926804291	587.647446531835	989.922369221626	304.842923499933	646.962223296032	1027.668203681766	209.726720677853	579.790002335554	886.197127424141	48.472321585950	544.960198020257	1059.445506442663	97.260238422072	580.502506313460	970.289883884273	38.656035604948	617.446301833831	1178.452113325380	39.611873364127	606.027180459193	841.596821067198	221.973293183985	398.996606071426	892.083415567582	170.366923345331	317.605698588919	998.215735359964	174.003337018274	332.355363764385	1068.297182611942	56.507189031493	305.477898831298	965.861814526235	1088.482629380508	223.759505754197	1004.661496691243	827.897518436142	225.742287128610	1151.956957622794	1101.938860797294	789.166107475313	1374.389316093336	994.974767853871	716.201832646026	
54	36.645714285714	868.335703820763	1021.086140571773	530.619762447379	1054.121752943917	1432.760363778354	324.243388473666	1173.789897473670	1355.078685831126	470.898483046318	1121.748415255373	1440.440144338390	651.493062172890	1083.392685769595	1493.922402155738	475.635221679353	1100.617236869275	945.292960695023	629.203058305076	1063.116952014767	959.030630647447	357.458859444424	1120.260908112812	739.506340204099	600.356675737599	1029.633017143959	637.170846456954	660.847692890236	1098.169227917821	579.231159283324	578.701680606581	1089.751048378715	492.605820369178	582.944756972969	1154.359457693748	798.486337702748	379.937279824087	1118.884691649345	672.385752393151	295.397162131997	1233.429148531095	618.369829578398	347.643816098760	1254.708269668673	528.728373402017	335.638089844302	1191.271287091256	456.479665531655	333.517550068698	1048.944680001230	407.431340710282	294.646186540865	1046.400693306736	277.879438563737	349.274572279628	1057.899721320094	406.712820259291	588.038442873288	982.030703911707	304.963394844632	647.424849175540	1019.710054186332	209.816820838801	580.083743475594	878.120590949027	48.549685314310	545.079636491761	1051.434007175965	97.288315312911	580.659910463115	962.228568402803	38.659559009541	617.563236468316	1170.355413940608	39.579400961414	606.122226223614	862.601197042930	208.924496006681	398.478458219137	915.696339031181	160.565382808189	316.669942004019	1021.602679240369	169.877356604299	331.262941267282	1098.014534056177	56.573871769970	303.510138342357	957.243986808717	1090.837944988115	224.571780391332	984.716266660970	828.962954577184	228.523902269067	1162.781211057353	1103.234730211676	788.575381105537	1389.853625851726	1011.176720403546	711.373805960996	
55	36.657142857143	867.994075452140	1021.443700220685	531.128579325619	1053.978171559244	1432.729245866459	324.445077721437	1174.107200120081	1354.448501367060	470.360163717705	1123.397151512573	1439.913266353730	651.275100834363	1084.071279054294	1493.611537109009	475.743407871173	1100.027513104876	945.026630260271	629.415864781856	1062.262245577959	958.683904964215	357.539528454852	1116.461706007394	738.465999912510	600.214683009976	1024.380483950525	637.266990562897	661.283755663439	1091.507969228414	578.279460379171	579.144754471965	1081.870796619367	492.341885131490	583.401352392534	1154.708657479020	801.302307144429	380.568462694122	1121.930975836054	674.828967792458	295.125489644921	1237.076941770326	622.768571038146	347.543040780999	1260.515091267778	534.109843045691	335.317623294612	1200.178407993072	459.945859913731	333.129984164898	1060.437695473467	403.970887177617	294.132655131863	1064.649123592781	274.174120369858	348.335955632703	1049.972412107739	406.689560022521	588.384329720727	973.999173338285	305.008439598794	647.817565411057	1011.641932589847	209.854035341213	580.337621565611	870.041746167374	48.510424056108	545.200587034727	1043.369826019541	97.287477528161	580.772055899161	954.143438035928	38.618083483390	617.664710400232	1162.243254970976	39.567892565275	606.198792999617	884.667666726850	195.050832292871	397.460994162806	940.267034525715	150.220203606000	315.280514207485	1045.577630968314	165.393143884635	329.822713610372	1128.277823082840	56.757747563224	301.230193949218	948.524262053646	1093.540665745755	224.945200112648	965.970705009859	831.014311986727	231.738521477984	1173.449967149012	1104.572244361756	787.742504381654	1404.091437104951	1027.661571022228	706.307008503655	
56	36.668571428571	867.789359214201	1021.601186232696	531.466649455704	1053.874224934762	1432.582303489247	324.582642419709	1174.459768925327	1353.652826623311	469.734228791594	1125.033742206628	1439.168612754203	650.980515200421	1084.732926390107	1493.127539850543	475.816955893718	1099.485369280932	944.553968471276	629.476633973365	1061.562281029806	958.098851263773	357.477849988747	1112.691891419370	737.249926849544	600.150265798142	1018.967840813886	637.271248483235	661.657469920311	1084.732496467244	577.221910264078	579.607784290701	1073.918876798004	491.980712658129	583.853968245473	1154.784115769697	803.450673727655	381.263138761728	1124.526665303058	676.692108760054	294.945200190038	1239.960135927675	626.304194049315	347.746641002447	1265.377379852232	538.770279210227	335.333912560558	1208.320600944353	462.915389395354	332.894286950285	1071.782283643922	399.836531513663	293.480288414148	1083.055266953828	270.095710759818	347.154169418482	1041.914218973230	406.610501086951	588.687683681295	965.856571376641	304.979988614448	648.138123975034	1003.483387752984	209.834314894127	580.548574677044	861.954849201243	48.358581622496	545.314827282004	1035.253057275788	97.258778612620	580.839049553032	946.033789151900	38.533900181853	617.746623698059	1154.118409798583	39.580872304023	606.256526779212	907.742938009536	180.585999515631	395.914261070815	965.723052647150	139.597982026544	313.420503723959	1070.008829025679	160.760008589954	328.053574511762	1158.877621067164	57.320505979137	298.681966070053	939.797423137679	1096.523324365209	224.988679924264	948.426149183662	833.813553767950	235.337374352563	1183.934798084694	1105.931528707059	786.660703509238	1417.065223382293	1044.308652361334	701.039492950108	
